# xmcd CD database file
#
# Track frame offsets:
#	150
#	23397
#	42404
#	68487
#	91054
#	109804
#	129529
#	144522
#	160739
#	184861
#
# Disc length: 2606 seconds
#
# Revision: 3
# Processed by: cddbd v1.5.2PL0 Copyright (c) Steve Scherf et al.
# Submitted via: CDex 1.51
#
DISCID=780a2c0a
DTITLE=Various Artist - Lords of Karma - A Tribute to Vai, Satriani
DYEAR=2002
DGENRE=Rock
TTITLE0=Always with me, Always with you - Bruce Kuluck
TTITLE1=Surfing with the Alien - Jake E. Lee
TTITLE2=Echo - Jimmy Crespo and Dave Ragsdale
TTITLE3=Summer Song /Brad Gillis
TTITLE4=Friends - Neil ZaZa
TTITLE5=Yankee Rose - Enuff Znuff
TTITLE6=Shy Boy - George Lynch, Tony Harnell, Jason McMaster
TTITLE7=The Attitude Song - Richard Kendrick
TTITLE8=Tender Surrender - Tony Janflone Jr.
TTITLE9=Tobacco Road - Corey Craven
EXTD=YEAR: 2002
EXTT0=
EXTT1=
EXTT2=
EXTT3=
EXTT4=
EXTT5=
EXTT6=
EXTT7=
EXTT8=
EXTT9=
PLAYORDER=
